<svg width="22" height="24" viewBox="0 0 22 24" fill="none" xmlns="http://www.w3.org/2000/svg">
<path d="M18.3333 2.4H17.1111V1.2C17.1111 0.88174 16.9823 0.576515 16.7531 0.351472C16.5239 0.126428 16.213 0 15.8889 0C15.5647 0 15.2539 0.126428 15.0246 0.351472C14.7954 0.576515 14.6667 0.88174 14.6667 1.2V2.4H7.33333V1.2C7.33333 0.88174 7.20456 0.576515 6.97535 0.351472C6.74614 0.126428 6.43526 0 6.11111 0C5.78696 0 5.47608 0.126428 5.24687 0.351472C5.01766 0.576515 4.88889 0.88174 4.88889 1.2V2.4H3.66667C2.69421 2.4 1.76158 2.77928 1.07394 3.45442C0.386309 4.12955 0 5.04522 0 6V20.4C0 21.3548 0.386309 22.2705 1.07394 22.9456C1.76158 23.6207 2.69421 24 3.66667 24H18.3333C19.3058 24 20.2384 23.6207 20.9261 22.9456C21.6137 22.2705 22 21.3548 22 20.4V6C22 5.04522 21.6137 4.12955 20.9261 3.45442C20.2384 2.77928 19.3058 2.4 18.3333 2.4ZM3.66667 4.8H4.88889V6C4.88889 6.31826 5.01766 6.62348 5.24687 6.84853C5.47608 7.07357 5.78696 7.2 6.11111 7.2C6.43526 7.2 6.74614 7.07357 6.97535 6.84853C7.20456 6.62348 7.33333 6.31826 7.33333 6V4.8H14.6667V6C14.6667 6.31826 14.7954 6.62348 15.0246 6.84853C15.2539 7.07357 15.5647 7.2 15.8889 7.2C16.213 7.2 16.5239 7.07357 16.7531 6.84853C16.9823 6.62348 17.1111 6.31826 17.1111 6V4.8H18.3333C18.6575 4.8 18.9684 4.92643 19.1976 5.15147C19.4268 5.37652 19.5556 5.68174 19.5556 6V10.8H2.44444V6C2.44444 5.68174 2.57321 5.37652 2.80243 5.15147C3.03164 4.92643 3.34251 4.8 3.66667 4.8ZM18.3333 21.6H3.66667C3.34251 21.6 3.03164 21.4736 2.80243 21.2485C2.57321 21.0235 2.44444 20.7183 2.44444 20.4V13.2H19.5556V20.4C19.5556 20.7183 19.4268 21.0235 19.1976 21.2485C18.9684 21.4736 18.6575 21.6 18.3333 21.6Z" fill="white"/>
</svg>
